<?xml version="1.0" encoding="UTF-8"?>
<svg id="_레이어_1" data-name="레이어 1" xmlns="http://www.w3.org/2000/svg" viewBox="0 0 556.45 35.65">
  <defs>
    <style>
      .cls-1 {
        fill: #094;
      }
    </style>
  </defs>
  <path class="cls-1" d="m4.71,28.72c5.89-9.39,14.54-17.99,25.22-21.64,5.22-1.78,10.79-2.27,16.18-.96,5.85,1.42,11.03,4.6,15.98,7.92,9.67,6.5,20.03,14.54,32.36,13.93,10.24-.51,17.04-7.75,24.25-14.11,3.37-2.98,7.11-5.93,11.62-6.83,4.76-.95,9.27.8,13.22,3.37,8.54,5.56,14.92,13.87,24.76,17.41,9.39,3.37,20.16,2.47,29.06-1.93,4.48-2.22,8.26-5.43,11.46-9.24,3.43-4.08,6.73-9.3,12.07-11.03,5.81-1.88,11.33.69,14.9,5.34,3.12,4.07,5.6,8.24,9.83,11.29,7.58,5.46,18.1,6.89,26.92,3.89,4.91-1.67,8.85-4.64,12.38-8.38s7.14-7.72,12.13-10.01c8.47-3.88,18.96-3.49,27.21.79,4.4,2.28,7.61,5.5,10.55,9.43,3.49,4.68,7.17,7.83,13.12,8.68s11.76.95,17.52.72c5.44-.22,10.9-1.03,15.93-3.2,5.58-2.4,9.47-6.68,14.19-10.31s11.45-5.77,15.15.2c2.8,4.53,5.02,8.88,9.07,12.5s8.7,6.23,13.81,7.75c10.13,3.01,21.41.94,29.97-5.21,4.53-3.25,7.72-7.32,10.7-11.97,3.14-4.91,6.83-8.28,12.95-8.17,11.72.2,20.03,9.83,29.34,15.55s19.81,6.82,29.36,1.46c4.24-2.38,7.75-5.85,10.18-10.05,1.61-2.79-2.71-5.31-4.32-2.52-5.39,9.32-17.01,13.47-27.07,9.66-10.65-4.04-17.98-13.74-28.85-17.49-4.63-1.59-9.9-2.28-14.65-.81-5.51,1.7-8.75,5.94-11.73,10.61-6.08,9.53-16,15.8-27.58,15.32-11.08-.46-20.47-7.32-25.61-16.88-2.57-4.78-5.9-8.51-11.71-8.56s-10.33,3.1-14.44,6.64c-4.61,3.97-8.8,7.51-14.81,9.11-5.86,1.56-12,1.56-18.02,1.32s-12.21.05-16.44-4.68c-3.43-3.84-5.9-7.93-10.16-11-7.42-5.36-17.02-7.41-26.02-6.18-4.68.64-9.26,2.16-13.29,4.66-4.6,2.85-7.82,7.04-11.64,10.77-7.16,7.01-18.11,8.67-27.23,4.59-4.8-2.15-7.92-5.65-10.88-9.88-3.19-4.56-6.74-8.61-12.36-10.02-4.89-1.23-10.17-.38-14.34,2.47-4.5,3.08-7.43,7.68-11.03,11.67-6.86,7.59-17.31,11.15-27.42,9.94-10.96-1.31-17.98-8.96-26.19-15.45-7.55-5.97-16.41-9.74-25.77-5.44-8.45,3.88-13.74,12.18-21.74,16.72-11.21,6.35-23.47-.66-32.87-7.09C60.51,6.93,50.8.04,38.86.38c-10.79.31-20.74,5.95-28.38,13.29-3.88,3.72-7.23,7.98-10.08,12.53-1.71,2.73,2.61,5.25,4.32,2.52h0Z"/>
</svg>